<svg id="Laag_1" xmlns="http://www.w3.org/2000/svg" viewBox="-100 57.9 40 40"><style>.st0{fill:#00B3A3;} .st1{filter:url(#Adobe_OpacityMaskFilter);} .st2{fill:#FFFFFF;} .st3{mask:url(#mask-2);fill:#FFFFFF;} .st4{fill:#1A9386;} .st5{filter:url(#Adobe_OpacityMaskFilter_1_);} .st6{mask:url(#mask-6);fill:#009185;}</style><title>id_code_icon</title><path id="Fill-1" class="st0" d="M-92.1 75h3v-3c0-5 4.1-9.1 9.1-9.1s9.1 4.1 9.1 9.1v3h3v18.1H-92V75zm18.1-3c0-3.3-2.7-6-6-6s-6 2.7-6 6v3h12v-3z"/><defs><filter id="Adobe_OpacityMaskFilter" filterUnits="userSpaceOnUse" x="-99.6" y="80.3" width="39.2" height="7.5"><feColorMatrix values="1 0 0 0 0 0 1 0 0 0 0 0 1 0 0 0 0 0 1 0"/></filter></defs><mask maskUnits="userSpaceOnUse" x="-99.6" y="80.3" width="39.2" height="7.5" id="mask-2"><g class="st1"><path id="path-1" class="st2" d="M-100 93.1h40V62.9h-40z"/></g></mask><path id="Fill-3" class="st3" d="M-99.6 87.8h39.2v-7.5h-39.2z"/><path id="Fill-5" class="st4" d="M-93.3 83.2c.5 0 .8.4.8.8 0 .5-.4.8-.8.8-.5 0-.8-.4-.8-.8-.1-.4.3-.8.8-.8"/><path id="Fill-6" class="st4" d="M-86.6 83.2c.5 0 .8.4.8.8 0 .5-.4.8-.8.8-.5 0-.8-.4-.8-.8s.4-.8.8-.8"/><path id="Fill-7" class="st4" d="M-80 83.2c.5 0 .8.4.8.8 0 .5-.4.8-.8.8-.5 0-.8-.4-.8-.8s.3-.8.8-.8"/><path id="Fill-8" class="st4" d="M-73.5 83.2c.5 0 .8.4.8.8 0 .5-.4.8-.8.8-.5 0-.8-.4-.8-.8s.4-.8.8-.8"/><path id="Fill-9" class="st4" d="M-66.9 83.2c.5 0 .8.4.8.8 0 .5-.4.8-.8.8s-.8-.4-.8-.8.3-.8.8-.8"/><g id="Fill-11-Clipped"><defs><filter id="Adobe_OpacityMaskFilter_1_" filterUnits="userSpaceOnUse" x="-100" y="79.9" width="40" height="8.3"><feColorMatrix values="1 0 0 0 0 0 1 0 0 0 0 0 1 0 0 0 0 0 1 0"/></filter></defs><mask maskUnits="userSpaceOnUse" x="-100" y="79.9" width="40" height="8.3" id="mask-6"><g class="st5"><path id="path-5" class="st2" d="M-100 93.1h40V62.9h-40z"/></g></mask><path id="Fill-11" class="st6" d="M-60.9 87.3h-38.2v-6.5h38.2v6.5zm-39.1-7.4v8.3h40v-8.3h-40z"/></g></svg>