<svg xmlns="http://www.w3.org/2000/svg" viewBox="-419 221 120 120"><path fill="none" d="M-332.8 244.1h-52.7c-1.1 0-2 .9-2 2v28.3c0 1.1.9 2 2 2h52.7c1.1 0 2-.9 2-2v-28.3c.1-1.1-.8-2-2-2z"/><path fill="#00B3A4" d="M-358.8 228.3c25.7 0 33.5 5 33.5 5l.1.1c-1-4.5-3.6-7.4-3.6-7.4s-4.3-5-30-5c-25.8 0-30.1 5-30.1 5s-2.6 3-3.6 7.4h.2c0-.1.1-.1.1-.1s7.8-5 33.4-5z"/><path fill="#009286" d="M-322.6 259.8c-.4-19.7-2.3-25.4-2.6-26.4 0-.1-.1-.1-.1-.1s-7.8-5-33.5-5-33.5 5-33.5 5l-.1.1c-.4 1.2-3 10-3 45.2 0 29 4.2 47.1 6.3 54.1.7 2.2 2.3 4 4.6 4.8 4.1 1.4 12.2 3.3 25.7 3.5 13.5-.1 21.5-2.1 25.7-3.5 2.1-.7 3.4-2.7 3.4-4.8 0-4.1.1-12.3 1.5-25.8 1.1-11.5 6.1-27 5.6-47.1z"/><path fill="#00B2A3" d="M-338.3 310.8h-4.1c-2.2 0-4.1-1.8-4.1-4s1.8-4 4.1-4h4.1c2.2 0 4.1 1.8 4.1 4-.1 2.2-1.9 4-4.1 4zm0-11.1h-4.1c-2.2 0-4.1-1.8-4.1-4s1.8-4 4.1-4h4.1c2.2 0 4.1 1.8 4.1 4-.1 2.2-1.9 4-4.1 4zm0-11.1h-4.1c-2.2 0-4.1-1.8-4.1-4s1.8-4 4.1-4h4.1c2.2 0 4.1 1.8 4.1 4-.1 2.2-1.9 4-4.1 4zm-18.3 44.5h-4.1c-2.2 0-4.1-1.8-4.1-4s1.8-4 4.1-4h4.1c2.2 0 4.1 1.8 4.1 4 0 2.1-1.8 4-4.1 4zm0-11.2h-4.1c-2.2 0-4.1-1.8-4.1-4s1.8-4 4.1-4h4.1c2.2 0 4.1 1.8 4.1 4s-1.8 4-4.1 4zm0-11.1h-4.1c-2.2 0-4.1-1.8-4.1-4s1.8-4 4.1-4h4.1c2.2 0 4.1 1.8 4.1 4s-1.8 4-4.1 4zm0-11.1h-4.1c-2.2 0-4.1-1.8-4.1-4s1.8-4 4.1-4h4.1c2.2 0 4.1 1.8 4.1 4s-1.8 4-4.1 4zm-18.7 22.2h-4.1c-2.2 0-4.1-1.8-4.1-4s1.8-4 4.1-4h4.1c2.2 0 4.1 1.8 4.1 4-.1 2.2-1.9 4-4.1 4zm0-11.1h-4.1c-2.2 0-4.1-1.8-4.1-4s1.8-4 4.1-4h4.1c2.2 0 4.1 1.8 4.1 4-.1 2.2-1.9 4-4.1 4zm0-11.1h-4.1c-2.2 0-4.1-1.8-4.1-4s1.8-4 4.1-4h4.1c2.2 0 4.1 1.8 4.1 4-.1 2.2-1.9 4-4.1 4zm32.9 14.2h4.1c2.2 0 4.1 1.8 4.1 4s-1.8 4-4.1 4h-4.1c-2.2 0-4.1-1.8-4.1-4s1.9-4 4.1-4z"/><path fill="#FFD200" d="M-379.4 280.5h4.1c2.2 0 4.1 1.8 4.1 4s-1.8 4-4.1 4h-4.1c-2.2 0-4.1-1.8-4.1-4 .1-2.2 1.9-4 4.1-4z"/><path fill="#FFF" d="M-330.7 274.4c0 1.1-.9 2-2 2h-52.7c-1.1 0-2-.9-2-2v-28.3c0-1.1.9-2 2-2h52.7c1.1 0 2 .9 2 2v28.3z"/></svg>